<svg xmlns="http://www.w3.org/2000/svg" xml:space="preserve" width="800" height="800" viewBox="0 0 330 330">
  <path fill="#680747" d="M305 0H105C69.159 0 40 29.159 40 65v15H25c-8.284 0-15 6.716-15 15s6.716 15 15 15h15v40H25c-8.284 0-15 6.716-15 15s6.716 15 15 15h15v40H25c-8.284 0-15 6.716-15 15s6.716 15 15 15h15v15c0 35.841 29.159 65 65 65h200c8.284 0 15-6.716 15-15V15c0-8.284-6.716-15-15-15zm-90.787 199.212c-28.342 28.342-63.587 39.049-78.718 23.918l-20.494-20.494 30.67-30.67 20.526 20.525 41.283-41.282-20.526-20.526 30.683-30.682 20.494 20.494c15.132 15.131 4.425 50.375-23.918 78.717z"/>
</svg>
